<svg xmlns="http://www.w3.org/2000/svg" xmlns:xlink="http://www.w3.org/1999/xlink" width="100" zoomAndPan="magnify" viewBox="0 0 75 74.999997" height="100" preserveAspectRatio="xMidYMid meet" version="1.0"><defs><clipPath id="34aabf789d"><path d="M 4 13 L 71.25 13 L 71.25 63.105469 L 4 63.105469 Z M 4 13 " clip-rule="nonzero"/></clipPath></defs><path fill="#ffffff" d="M 32.433594 45.902344 C 33.824219 45.902344 35.21875 45.902344 36.59375 45.699219 C 36.1875 46.105469 35.550781 46.128906 34.976562 46.128906 C 29.339844 46.128906 23.703125 46.125 18.066406 46.125 C 17.492188 46.125 16.898438 46.128906 16.367188 46.347656 C 16.296875 46.128906 16.589844 45.980469 16.816406 45.949219 C 17.335938 45.878906 17.863281 45.878906 18.386719 45.878906 C 23.070312 45.886719 27.75 45.894531 32.433594 45.902344 Z M 32.433594 45.902344 " fill-opacity="1" fill-rule="nonzero"/><path fill="#ffffff" d="M 38.257812 46.125 C 39.640625 45.636719 41.03125 45.179688 42.433594 44.753906 C 42.761719 44.65625 43.09375 44.558594 43.4375 44.546875 C 43.527344 44.546875 43.65625 44.625 43.59375 44.691406 C 41.609375 45.191406 39.65625 45.824219 37.753906 46.585938 C 37.589844 46.652344 37.394531 46.71875 37.238281 46.632812 C 37.527344 46.386719 37.898438 46.25 38.257812 46.125 Z M 38.257812 46.125 " fill-opacity="1" fill-rule="nonzero"/><path fill="#ffffff" d="M 26.144531 48.8125 C 26.027344 48.9375 25.835938 48.945312 25.664062 48.945312 C 21.835938 48.949219 18.011719 48.945312 14.183594 48.941406 C 14.078125 48.839844 14.285156 48.707031 14.429688 48.707031 C 18.066406 48.707031 21.699219 48.707031 25.332031 48.703125 C 25.605469 48.703125 25.890625 48.707031 26.144531 48.8125 Z M 26.144531 48.8125 " fill-opacity="1" fill-rule="nonzero"/><path fill="#ffffff" d="M 21.023438 49.445312 C 21.101562 49.753906 21.128906 50.074219 21.105469 50.390625 C 21.09375 50.558594 21.054688 50.742188 20.917969 50.839844 C 20.542969 51.097656 20.019531 51.28125 19.648438 51.019531 C 19.390625 50.839844 19.289062 50.511719 19.207031 50.210938 C 19.179688 50.101562 19.148438 49.992188 19.117188 49.878906 C 19.082031 49.738281 19.042969 49.582031 19.113281 49.453125 C 19.21875 49.25 19.5 49.242188 19.726562 49.261719 C 20.125 49.296875 20.523438 49.332031 20.925781 49.367188 C 20.953125 49.371094 20.984375 49.375 21.003906 49.398438 C 21.015625 49.410156 21.019531 49.429688 21.023438 49.445312 Z M 21.023438 49.445312 " fill-opacity="1" fill-rule="nonzero"/><path fill="#ffffff" d="M 13.15625 47.5625 C 13.113281 47.523438 13.085938 47.472656 13.074219 47.414062 C 13.296875 47.300781 13.515625 47.183594 13.738281 47.070312 C 12.53125 46.976562 11.308594 47.023438 10.109375 47.214844 C 10.058594 47.15625 10.085938 47.054688 10.144531 47.003906 C 10.207031 46.953125 10.289062 46.941406 10.363281 46.929688 C 11.09375 46.820312 11.835938 46.78125 12.574219 46.808594 C 13.167969 46.832031 13.769531 46.894531 14.355469 46.792969 C 14.523438 46.761719 14.71875 46.726562 14.839844 46.851562 C 14.277344 47.089844 13.71875 47.324219 13.15625 47.5625 Z M 13.15625 47.5625 " fill-opacity="1" fill-rule="nonzero"/><path fill="#ffffff" d="M 6.875 49.945312 C 6.6875 49.863281 6.652344 49.585938 6.757812 49.410156 C 6.894531 49.167969 7.195312 49.0625 7.472656 49.066406 C 7.921875 49.070312 8.359375 49.316406 8.597656 49.699219 C 8.339844 49.859375 8.023438 49.890625 7.722656 49.917969 C 7.53125 49.933594 7.34375 49.953125 7.152344 49.96875 C 7.058594 49.976562 6.960938 49.984375 6.875 49.945312 Z M 6.875 49.945312 " fill-opacity="1" fill-rule="nonzero"/><path fill="#ffffff" d="M 51.949219 48.5 C 51.800781 48.570312 51.621094 48.480469 51.460938 48.523438 C 51.332031 48.558594 51.191406 48.476562 51.109375 48.367188 C 51.03125 48.257812 51 48.121094 50.96875 47.988281 C 50.929688 47.824219 50.914062 47.613281 51.0625 47.539062 C 51.113281 47.507812 51.175781 47.507812 51.238281 47.507812 C 51.355469 47.507812 51.472656 47.507812 51.589844 47.503906 C 51.730469 47.503906 51.882812 47.511719 51.980469 47.605469 C 52.058594 47.683594 52.082031 47.796875 52.101562 47.902344 C 52.140625 48.121094 52.148438 48.40625 51.949219 48.5 M 51.273438 47.761719 C 51.246094 47.765625 51.21875 47.773438 51.199219 47.792969 C 51.1875 47.808594 51.183594 47.832031 51.179688 47.851562 C 51.160156 48.007812 51.246094 48.175781 51.382812 48.253906 C 51.523438 48.328125 51.710938 48.308594 51.832031 48.207031 C 51.957031 48.101562 51.894531 47.878906 51.753906 47.792969 C 51.613281 47.710938 51.433594 47.726562 51.273438 47.761719 Z M 51.273438 47.761719 " fill-opacity="1" fill-rule="nonzero"/><path fill="#ffffff" d="M 60.546875 46.710938 C 60.722656 46.730469 60.914062 46.8125 60.980469 46.980469 C 61.035156 47.117188 60.992188 47.28125 61.050781 47.417969 C 61.113281 47.550781 60.921875 47.65625 60.777344 47.679688 C 60.589844 47.714844 60.398438 47.746094 60.210938 47.707031 C 60.027344 47.667969 59.847656 47.546875 59.789062 47.363281 C 59.730469 47.175781 59.824219 46.960938 59.980469 46.839844 C 60.140625 46.722656 60.347656 46.6875 60.546875 46.710938 M 60.722656 47.414062 C 60.847656 47.324219 60.804688 47.113281 60.679688 47.027344 C 60.554688 46.945312 60.386719 46.953125 60.238281 46.984375 C 60.203125 46.992188 60.164062 47 60.128906 47.023438 C 60.003906 47.101562 60.03125 47.316406 60.15625 47.40625 C 60.277344 47.496094 60.441406 47.488281 60.589844 47.460938 C 60.636719 47.453125 60.683594 47.441406 60.722656 47.414062 Z M 60.722656 47.414062 " fill-opacity="1" fill-rule="nonzero"/><path fill="#ffffff" d="M 33.242188 49.015625 C 33.679688 48.925781 34.160156 49.0625 34.484375 49.375 C 34.566406 49.453125 34.640625 49.546875 34.648438 49.660156 C 34.65625 49.773438 34.566406 49.898438 34.453125 49.886719 C 33.921875 49.828125 33.378906 49.871094 32.859375 50.011719 C 32.636719 49.929688 32.558594 49.617188 32.664062 49.402344 C 32.769531 49.1875 33.003906 49.0625 33.242188 49.015625 Z M 33.242188 49.015625 " fill-opacity="1" fill-rule="nonzero"/><path fill="#ffffff" d="M 10.816406 49.019531 C 10.90625 49.050781 10.992188 49.121094 11.085938 49.105469 C 11.390625 49.050781 11.621094 49.386719 11.691406 49.691406 C 11.703125 49.742188 11.710938 49.800781 11.699219 49.851562 C 11.65625 50.015625 11.445312 50.046875 11.277344 50.046875 C 11.019531 50.042969 10.761719 50.042969 10.5 50.042969 C 10.429688 50.042969 10.355469 50.039062 10.304688 49.988281 C 10.273438 49.957031 10.261719 49.914062 10.25 49.875 C 10.195312 49.667969 10.1875 49.441406 10.289062 49.257812 C 10.386719 49.070312 10.617188 48.945312 10.816406 49.019531 Z M 10.816406 49.019531 " fill-opacity="1" fill-rule="nonzero"/><path fill="#ffffff" d="M 29.527344 49.96875 C 29.375 49.980469 29.195312 49.980469 29.097656 49.859375 C 28.945312 49.683594 29.101562 49.417969 29.25 49.242188 C 29.382812 49.085938 29.535156 48.917969 29.738281 48.898438 C 29.839844 48.890625 29.9375 48.921875 30.035156 48.957031 C 30.335938 49.0625 30.617188 49.214844 30.875 49.40625 C 30.953125 49.464844 31.03125 49.527344 31.066406 49.617188 C 31.101562 49.707031 31.078125 49.828125 30.988281 49.867188 C 30.957031 49.882812 30.921875 49.886719 30.886719 49.886719 C 30.433594 49.914062 29.980469 49.941406 29.527344 49.96875 Z M 29.527344 49.96875 " fill-opacity="1" fill-rule="nonzero"/><path fill="#ffffff" d="M 36.285156 50.003906 C 36.238281 50.015625 36.191406 50.03125 36.144531 50.027344 C 35.957031 50.015625 35.910156 49.757812 35.953125 49.574219 C 36.035156 49.230469 36.296875 48.910156 36.644531 48.871094 C 36.925781 48.839844 37.1875 48.992188 37.425781 49.140625 C 37.585938 49.234375 37.753906 49.34375 37.8125 49.519531 C 37.875 49.695312 37.75 49.9375 37.566406 49.910156 C 37.140625 49.847656 36.699219 49.878906 36.285156 50.003906 Z M 36.285156 50.003906 " fill-opacity="1" fill-rule="nonzero"/><g clip-path="url(#34aabf789d)"><path fill="#ffffff" d="M 8.503906 46.566406 C 7.644531 36.25 12.359375 25.589844 20.679688 19.484375 C 29.003906 13.375 40.671875 12.125 50.003906 16.519531 C 59.335938 20.914062 65.875 30.84375 66.042969 41.195312 C 67.195312 40.496094 68.527344 40.097656 69.871094 40.042969 C 69.269531 42.152344 68.667969 44.261719 68.066406 46.375 C 69.09375 46.378906 69.691406 47.566406 69.824219 48.589844 C 69.953125 49.613281 69.902344 50.761719 70.578125 51.539062 C 70.863281 51.867188 71.246094 52.394531 70.882812 52.625 C 69.960938 53.199219 69.210938 54.050781 68.75 55.039062 C 67.582031 57.558594 68.082031 61.128906 65.710938 62.558594 C 66.957031 62.242188 68.320312 62.421875 69.445312 63.050781 C 48.402344 63.089844 27.359375 63.082031 6.316406 63.023438 C 8.21875 62.21875 10.375 62.414062 12.425781 62.621094 C 10.570312 60.75 7.78125 59.855469 5.1875 60.308594 C 6.164062 58.898438 7.191406 57.277344 6.886719 55.585938 C 4.890625 55.070312 3.75 52.671875 4.238281 50.660156 C 4.726562 48.652344 6.523438 47.140625 8.503906 46.566406 M 52.273438 37.683594 C 52.265625 37.375 52.269531 37.039062 52.449219 36.789062 C 52.730469 36.398438 53.304688 36.386719 53.777344 36.464844 C 55.832031 36.820312 57.558594 38.1875 59.140625 39.550781 C 60.652344 40.847656 62.125 42.191406 63.558594 43.570312 C 64.019531 44.011719 63.742188 44.859375 63.199219 45.183594 C 62.652344 45.511719 61.972656 45.472656 61.335938 45.425781 C 61.878906 46.667969 62.222656 47.996094 62.355469 49.34375 C 63.214844 49.65625 64.089844 48.839844 65.003906 48.847656 C 65.734375 48.855469 66.339844 49.375 66.957031 49.765625 C 67.578125 50.15625 68.441406 50.410156 68.992188 49.933594 C 69.308594 48.789062 68.78125 47.554688 67.984375 46.679688 C 67.1875 45.804688 66.148438 45.195312 65.1875 44.507812 C 61.441406 41.828125 58.554688 37.730469 54.179688 36.316406 C 52.257812 35.695312 50.207031 35.65625 48.191406 35.636719 C 43.359375 35.597656 38.523438 35.660156 33.695312 35.820312 C 32.605469 35.859375 31.488281 35.90625 30.492188 36.347656 C 29.53125 36.773438 28.757812 37.53125 28.011719 38.277344 C 26.050781 40.21875 24.09375 42.164062 22.132812 44.109375 C 24.199219 42.179688 26.269531 40.25 28.335938 38.320312 C 29.070312 37.632812 29.828125 36.933594 30.761719 36.5625 C 31.589844 36.234375 32.503906 36.195312 33.394531 36.160156 C 38.910156 35.960938 44.433594 35.957031 49.949219 36.144531 C 50.453125 36.164062 51.019531 36.214844 51.332031 36.609375 C 51.566406 36.90625 51.585938 37.316406 51.59375 37.695312 C 51.632812 39.605469 51.671875 41.515625 51.710938 43.425781 C 51.71875 43.660156 51.707031 43.925781 51.53125 44.078125 C 51.390625 44.203125 51.183594 44.207031 50.996094 44.207031 C 42.75 44.210938 34.5 44.210938 26.25 44.214844 C 20.03125 44.21875 13.5625 44.273438 7.96875 47.003906 C 6.117188 47.90625 4.175781 49.550781 4.457031 51.601562 C 4.597656 50.816406 4.742188 50.015625 5.136719 49.324219 C 5.535156 48.636719 6.242188 48.070312 7.035156 48.070312 C 8.644531 48.074219 10.253906 48.074219 11.863281 48.074219 C 12.589844 48.074219 13.140625 48.734375 13.453125 49.390625 C 13.769531 50.046875 13.976562 50.789062 14.503906 51.289062 C 15.230469 51.984375 16.34375 52.015625 17.351562 52.007812 C 19.886719 51.984375 22.421875 51.960938 24.957031 51.9375 C 25.652344 51.929688 26.179688 51.292969 26.472656 50.65625 C 26.769531 50.023438 26.949219 49.308594 27.441406 48.808594 C 28.167969 48.066406 29.332031 48.027344 30.367188 48.039062 C 32.46875 48.058594 34.566406 48.078125 36.667969 48.097656 C 37.078125 48.101562 37.503906 48.109375 37.871094 48.296875 C 38.679688 48.710938 38.847656 49.765625 39.257812 50.578125 C 39.664062 51.394531 40.945312 51.976562 41.382812 51.179688 C 40.871094 50.160156 40.203125 49.222656 39.40625 48.410156 C 40.039062 48.359375 40.332031 49.148438 40.617188 49.714844 C 41.148438 50.777344 42.328125 51.476562 43.507812 51.425781 C 44.691406 51.375 45.808594 50.582031 46.246094 49.480469 C 46.753906 48.207031 48.574219 48.21875 49.851562 48.703125 C 51.128906 49.1875 52.535156 49.917969 53.773438 49.34375 C 52.871094 45.523438 52.367188 41.609375 52.273438 37.683594 M 34.25 43.363281 C 34.640625 43.359375 35.121094 43.296875 35.261719 42.925781 C 35.515625 42.246094 36.171875 41.773438 36.863281 41.558594 C 37.558594 41.339844 38.300781 41.335938 39.027344 41.335938 C 39.878906 41.335938 40.75 41.339844 41.566406 41.582031 C 42.386719 41.828125 43.160156 42.351562 43.503906 43.136719 C 43.601562 43.355469 43.890625 43.390625 44.125 43.390625 C 46.238281 43.40625 48.351562 43.417969 50.464844 43.433594 C 50.570312 43.433594 50.683594 43.433594 50.761719 43.363281 C 50.84375 43.289062 50.855469 43.164062 50.863281 43.054688 C 50.953125 41.417969 50.964844 39.773438 50.898438 38.132812 C 50.886719 37.863281 50.855469 37.550781 50.632812 37.398438 C 50.484375 37.292969 50.292969 37.289062 50.113281 37.289062 C 44.15625 37.289062 38.195312 37.285156 32.234375 37.285156 C 31.734375 37.285156 31.222656 37.289062 30.757812 37.464844 C 30.257812 37.65625 29.855469 38.027344 29.464844 38.390625 C 27.691406 40.058594 25.9375 41.75 24.207031 43.464844 C 27.554688 43.429688 30.902344 43.398438 34.25 43.363281 M 17.148438 58.828125 C 14.269531 58.917969 11.375 59.105469 8.519531 58.714844 C 7.886719 58.628906 7.226562 58.515625 6.621094 58.714844 C 6.011719 58.914062 5.492188 59.546875 5.660156 60.167969 C 18.546875 60.113281 31.433594 60.125 44.320312 60.199219 C 44.261719 59.589844 43.746094 59.097656 43.171875 58.886719 C 42.597656 58.675781 41.96875 58.6875 41.355469 58.703125 C 36.769531 58.820312 32.1875 58.9375 27.601562 59.054688 C 27.703125 58.976562 27.808594 58.894531 27.910156 58.816406 C 24.324219 58.769531 20.734375 58.722656 17.148438 58.828125 M 38.117188 60.367188 C 32.472656 60.371094 26.828125 60.371094 21.183594 60.375 C 20.976562 60.375 20.714844 60.410156 20.644531 60.605469 C 20.324219 61.542969 19.503906 62.289062 18.542969 62.519531 C 26.148438 62.519531 33.753906 62.519531 41.359375 62.519531 C 40.378906 62.199219 39.519531 61.527344 38.960938 60.65625 C 38.792969 60.394531 38.429688 60.367188 38.117188 60.367188 M 67.527344 59.195312 C 67.898438 59.160156 67.933594 58.636719 67.886719 58.261719 C 67.753906 57.175781 67.863281 56.074219 67.925781 54.980469 C 67.988281 53.886719 68.003906 52.765625 67.695312 51.714844 C 67.382812 50.664062 66.699219 49.675781 65.695312 49.242188 C 65.335938 49.082031 64.917969 49.003906 64.542969 49.132812 C 64.066406 49.292969 63.761719 49.753906 63.554688 50.214844 C 63.222656 50.960938 63.066406 51.777344 62.875 52.574219 C 62.542969 53.953125 62.082031 55.296875 61.5 56.585938 C 61.324219 56.976562 61.113281 57.386719 60.730469 57.574219 C 60.472656 57.703125 60.175781 57.707031 59.886719 57.707031 C 57.667969 57.722656 55.445312 57.738281 53.226562 57.753906 C 53.136719 57.757812 53.117188 57.882812 53.132812 57.972656 C 53.191406 58.429688 53.253906 58.886719 53.316406 59.34375 C 53.324219 59.40625 53.335938 59.476562 53.378906 59.523438 C 53.4375 59.585938 53.53125 59.589844 53.613281 59.589844 C 56.609375 59.605469 59.605469 59.621094 62.601562 59.636719 C 62.730469 59.636719 62.90625 59.597656 62.910156 59.46875 C 62.964844 57.9375 63.125 56.414062 63.390625 54.90625 C 63.609375 53.667969 63.914062 52.410156 64.644531 51.390625 C 64.980469 50.914062 65.507812 50.464844 66.078125 50.574219 C 66.671875 50.6875 66.996094 51.332031 67.167969 51.914062 C 67.746094 53.871094 67.664062 55.953125 67.578125 57.992188 C 67.5625 58.390625 67.542969 58.792969 67.527344 59.195312 M 51.46875 55.160156 C 51.132812 53.21875 49.683594 51.386719 47.746094 51.066406 C 47.316406 50.996094 46.730469 51.113281 46.6875 51.550781 C 47.664062 51.554688 48.632812 51.960938 49.324219 52.65625 C 48.882812 53.109375 48.4375 53.566406 47.917969 53.929688 C 47.546875 54.1875 47.050781 54.394531 46.660156 54.167969 C 46.347656 53.980469 46.234375 53.574219 46.234375 53.207031 C 46.234375 52.839844 46.320312 52.472656 46.28125 52.109375 C 46.222656 51.597656 46.519531 51.097656 46.914062 50.773438 C 47.589844 50.21875 48.546875 50.070312 49.386719 50.300781 C 50.226562 50.53125 50.949219 51.101562 51.457031 51.8125 C 51.382812 51.03125 51.144531 50.253906 50.675781 49.628906 C 50.207031 49.003906 49.488281 48.546875 48.710938 48.503906 C 47.910156 48.460938 47.128906 48.855469 46.5625 49.421875 C 45.996094 49.992188 45.617188 50.722656 45.316406 51.464844 C 45.246094 51.632812 45.261719 51.914062 45.4375 51.890625 C 45.660156 51.863281 45.875 52.019531 45.984375 52.214844 C 46.097656 52.414062 46.125 52.644531 46.148438 52.867188 C 46.160156 52.964844 46.167969 53.074219 46.121094 53.160156 C 46.039062 53.3125 45.835938 53.335938 45.664062 53.339844 C 44.914062 53.363281 44.164062 53.386719 43.417969 53.410156 C 43.5625 53.632812 43.882812 53.636719 44.148438 53.617188 C 44.808594 53.570312 45.46875 53.519531 46.128906 53.472656 C 45.925781 53.78125 45.785156 54.132812 45.714844 54.5 C 45.859375 54.308594 46.132812 54.257812 46.367188 54.3125 C 46.601562 54.367188 46.804688 54.507812 47 54.648438 C 47.359375 54.902344 47.730469 55.179688 47.929688 55.574219 C 48.128906 55.972656 48.09375 56.527344 47.730469 56.78125 C 48.496094 56.910156 49.269531 57.015625 50.042969 57.085938 C 50.203125 57.101562 50.386719 57.109375 50.5 56.996094 C 50.65625 56.84375 50.578125 56.5625 50.402344 56.433594 C 50.230469 56.308594 50 56.292969 49.785156 56.28125 C 49.414062 56.261719 49.046875 56.242188 48.675781 56.222656 C 48.160156 56.195312 48.320312 55.210938 47.839844 55.027344 C 48.363281 54.390625 48.949219 53.808594 49.582031 53.285156 C 49.722656 53.167969 49.917969 53.316406 50.027344 53.457031 C 50.984375 54.699219 51.222656 56.457031 50.632812 57.910156 C 50.042969 59.359375 48.644531 60.449219 47.101562 60.664062 C 46.660156 60.726562 46.191406 60.71875 45.800781 60.503906 C 45.410156 60.289062 45.132812 59.824219 45.246094 59.390625 C 45.320312 59.109375 45.546875 58.859375 45.511719 58.570312 C 45.480469 58.351562 45.628906 58.140625 45.820312 58.027344 C 46.011719 57.914062 46.234375 57.882812 46.453125 57.851562 C 46.671875 57.820312 46.949219 57.816406 47.050781 58.015625 C 47.367188 58.640625 47.683594 59.269531 48 59.894531 C 48.027344 59.957031 48.058594 60.015625 48.109375 60.058594 C 48.289062 60.214844 48.589844 60.03125 48.636719 59.800781 C 48.683594 59.566406 48.5625 59.335938 48.449219 59.125 C 48.097656 58.484375 47.742188 57.835938 47.273438 57.273438 C 47.066406 57.027344 46.675781 57.273438 46.46875 57.519531 C 46.265625 57.769531 45.914062 58.050781 45.667969 57.84375 C 45.453125 57.660156 45.460938 57.183594 45.179688 57.214844 C 45.210938 57.371094 45.242188 57.523438 45.273438 57.675781 C 44.957031 57.621094 44.628906 57.570312 44.316406 57.632812 C 44 57.699219 43.691406 57.910156 43.613281 58.222656 C 43.394531 59.050781 44.785156 59.660156 44.5625 60.488281 C 44.535156 60.589844 44.636719 60.679688 44.726562 60.738281 C 46.28125 61.722656 48.464844 61.425781 49.839844 60.203125 C 51.214844 58.976562 51.785156 56.976562 51.46875 55.160156 M 53.074219 45.257812 C 53.617188 46.570312 53.933594 47.96875 54.015625 49.382812 C 56.671875 49.378906 59.332031 49.371094 61.992188 49.367188 C 62.007812 48.28125 61.808594 47.191406 61.414062 46.179688 C 61.316406 45.921875 61.140625 45.632812 60.867188 45.640625 C 58.265625 45.722656 55.65625 45.59375 53.074219 45.257812 M 55.871094 38.160156 C 55.625 37.925781 55.285156 37.832031 54.953125 37.761719 C 54.289062 37.625 53.605469 37.566406 52.921875 37.585938 C 52.8125 37.589844 52.6875 37.597656 52.617188 37.683594 C 52.542969 37.765625 52.546875 37.886719 52.554688 37.996094 C 52.636719 39.195312 52.71875 40.394531 52.800781 41.59375 C 52.808594 41.738281 52.820312 41.890625 52.902344 42.015625 C 52.980469 42.140625 53.148438 42.21875 53.277344 42.144531 C 53.464844 42.039062 53.710938 42.175781 53.800781 42.371094 C 53.894531 42.566406 53.871094 42.792969 53.84375 43.007812 C 53.773438 43.597656 53.707031 44.1875 53.636719 44.777344 C 54.984375 44.804688 56.332031 44.828125 57.679688 44.855469 C 57.746094 44.855469 57.828125 44.851562 57.859375 44.789062 C 57.878906 44.753906 57.871094 44.707031 57.863281 44.667969 C 57.488281 42.730469 56.96875 40.824219 56.308594 38.964844 C 56.207031 38.671875 56.09375 38.371094 55.871094 38.160156 M 42.242188 52.730469 C 42.25 52.578125 42.253906 52.421875 42.261719 52.269531 C 29.660156 52.210938 17.0625 52.199219 4.460938 52.230469 C 4.53125 52.613281 5.03125 52.703125 5.421875 52.703125 C 17.695312 52.710938 29.96875 52.722656 42.242188 52.730469 M 58.105469 60.511719 C 56.140625 60.511719 54.175781 60.507812 52.210938 60.507812 C 51.988281 60.507812 51.726562 60.53125 51.617188 60.722656 C 51.175781 61.5 50.496094 62.136719 49.695312 62.519531 C 53.246094 62.519531 56.796875 62.519531 60.347656 62.523438 C 59.675781 62.1875 59.144531 61.578125 58.90625 60.863281 C 58.808594 60.566406 58.417969 60.511719 58.105469 60.511719 M 14.859375 55.636719 C 14.980469 55.925781 15.363281 55.96875 15.671875 55.96875 C 19.304688 55.976562 22.933594 55.980469 26.5625 55.984375 C 26.824219 55.984375 27.148438 55.945312 27.246094 55.703125 C 27.464844 55.140625 28.203125 55.054688 28.804688 55.058594 C 33.980469 55.097656 39.160156 55.207031 44.335938 55.394531 C 44.804688 55.410156 45.367188 55.382812 45.617188 54.984375 C 45.175781 55.054688 44.726562 55.054688 44.28125 55.054688 C 35.5625 55.027344 26.847656 55 18.132812 54.972656 C 17.1875 54.96875 16.238281 54.964844 15.292969 54.964844 C 12.109375 54.953125 8.925781 54.945312 5.742188 54.984375 C 8.367188 55.027344 10.992188 55.070312 13.617188 55.113281 C 14.09375 55.121094 14.675781 55.195312 14.859375 55.636719 M 57.074219 38.277344 C 57.460938 38.601562 57.851562 38.921875 58.238281 39.246094 C 57.84375 38.992188 57.445312 38.742188 57.050781 38.492188 C 57.777344 40.496094 58.410156 42.535156 58.945312 44.597656 C 58.996094 44.804688 59.261719 44.855469 59.476562 44.851562 C 60.601562 44.847656 61.722656 44.550781 62.707031 44.007812 C 62.796875 43.957031 62.894531 43.894531 62.914062 43.792969 C 62.933594 43.6875 62.851562 43.585938 62.777344 43.507812 C 60.96875 41.546875 59.035156 39.703125 56.992188 37.992188 C 56.894531 38.054688 56.984375 38.203125 57.074219 38.277344 M 35.257812 57.183594 C 35.269531 56.75 35.28125 56.320312 35.292969 55.886719 C 35.292969 55.816406 35.292969 55.738281 35.242188 55.6875 C 35.195312 55.640625 35.117188 55.636719 35.046875 55.636719 C 33.378906 55.636719 31.707031 55.636719 30.035156 55.636719 C 29.957031 55.636719 29.875 55.636719 29.816406 55.691406 C 29.75 55.75 29.742188 55.851562 29.742188 55.941406 C 29.742188 56.359375 29.742188 56.777344 29.738281 57.195312 C 29.738281 57.261719 29.742188 57.335938 29.796875 57.375 C 29.832031 57.402344 29.878906 57.40625 29.925781 57.40625 C 31.628906 57.410156 33.328125 57.417969 35.03125 57.425781 C 35.085938 57.425781 35.140625 57.421875 35.183594 57.390625 C 35.246094 57.347656 35.253906 57.257812 35.257812 57.183594 M 8.527344 57.316406 C 8.53125 57.34375 8.53125 57.375 8.554688 57.394531 C 8.570312 57.410156 8.597656 57.410156 8.625 57.410156 C 10.179688 57.410156 11.738281 57.40625 13.296875 57.402344 C 13.371094 57.402344 13.453125 57.398438 13.503906 57.347656 C 13.558594 57.292969 13.5625 57.207031 13.5625 57.128906 C 13.5625 56.714844 13.5625 56.300781 13.5625 55.890625 C 13.5625 55.832031 13.5625 55.769531 13.53125 55.722656 C 13.476562 55.644531 13.367188 55.636719 13.273438 55.636719 C 11.738281 55.636719 10.203125 55.636719 8.664062 55.636719 C 8.523438 55.636719 8.480469 55.832031 8.484375 55.976562 C 8.5 56.421875 8.515625 56.871094 8.527344 57.316406 M 66.636719 59.066406 C 67.03125 56.90625 67.09375 54.617188 66.308594 52.566406 C 66.148438 52.152344 65.925781 51.714844 65.519531 51.539062 C 65.117188 51.359375 64.519531 51.621094 64.546875 52.066406 C 65.222656 52.210938 65.746094 52.78125 66.015625 53.421875 C 66.285156 54.0625 66.34375 54.769531 66.398438 55.460938 C 66.414062 55.632812 66.378906 55.867188 66.207031 55.882812 C 65.675781 55.941406 65.144531 55.996094 64.609375 56.054688 C 64.445312 56.070312 64.238281 56.125 64.214844 56.289062 C 64.179688 56.5 64.464844 56.597656 64.675781 56.601562 C 65.207031 56.617188 65.738281 56.585938 66.265625 56.507812 C 66.386719 56.488281 66.429688 56.660156 66.421875 56.78125 C 66.386719 57.542969 66.347656 58.316406 66.097656 59.035156 C 65.847656 59.753906 65.351562 60.421875 64.644531 60.699219 C 64.628906 61.042969 65.023438 61.296875 65.359375 61.238281 C 65.695312 61.183594 65.957031 60.910156 66.132812 60.617188 C 66.414062 60.148438 66.535156 59.605469 66.636719 59.066406 M 62.863281 51.503906 C 62.761719 51.355469 62.554688 51.34375 62.378906 51.339844 C 59.800781 51.332031 57.222656 51.320312 54.644531 51.3125 C 54.320312 51.308594 53.886719 51.40625 53.875 51.730469 C 53.863281 52.070312 54.320312 52.183594 54.660156 52.179688 C 57.144531 52.167969 59.628906 52.152344 62.113281 52.136719 C 62.316406 52.136719 62.53125 52.132812 62.703125 52.023438 C 62.878906 51.917969 62.980469 51.671875 62.863281 51.503906 M 6.910156 51.304688 C 7.320312 51.765625 8.113281 51.808594 8.566406 51.390625 C 8.765625 51.207031 8.894531 50.960938 8.984375 50.707031 C 9.152344 50.222656 9.171875 49.644531 8.863281 49.238281 C 8.585938 48.878906 8.109375 48.734375 7.65625 48.738281 C 7.464844 48.738281 7.265625 48.765625 7.089844 48.84375 C 6.753906 49 6.53125 49.351562 6.46875 49.71875 C 6.40625 50.085938 6.484375 50.464844 6.621094 50.808594 C 6.695312 50.988281 6.785156 51.160156 6.910156 51.304688 M 11.292969 48.722656 C 11.082031 48.699219 10.867188 48.734375 10.660156 48.769531 C 10.257812 48.832031 9.960938 49.210938 9.882812 49.609375 C 9.804688 50.007812 9.902344 50.421875 10.035156 50.804688 C 10.089844 50.964844 10.152344 51.121094 10.253906 51.257812 C 10.558594 51.683594 11.183594 51.804688 11.660156 51.585938 C 12.132812 51.363281 12.4375 50.855469 12.480469 50.335938 C 12.515625 49.964844 12.425781 49.582031 12.210938 49.28125 C 12 48.976562 11.660156 48.761719 11.292969 48.722656 M 31.179688 49.269531 C 30.902344 48.777344 30.242188 48.621094 29.6875 48.734375 C 29.542969 48.761719 29.402344 48.808594 29.273438 48.882812 C 28.980469 49.054688 28.796875 49.382812 28.746094 49.722656 C 28.695312 50.058594 28.757812 50.40625 28.867188 50.730469 C 28.96875 51.027344 29.117188 51.320312 29.371094 51.507812 C 29.816406 51.835938 30.492188 51.71875 30.878906 51.324219 C 31.269531 50.933594 31.402344 50.332031 31.332031 49.78125 C 31.308594 49.605469 31.265625 49.425781 31.179688 49.269531 M 69.316406 40.242188 C 69.226562 40.179688 69.105469 40.210938 69 40.25 C 68.078125 40.566406 67.171875 40.929688 66.285156 41.339844 C 66.152344 41.402344 65.996094 41.496094 66 41.644531 C 66.007812 42.039062 65.960938 42.4375 65.859375 42.820312 C 66.445312 42.804688 67.027344 42.789062 67.613281 42.773438 C 67.679688 42.769531 67.75 42.769531 67.8125 42.742188 C 67.96875 42.683594 68.039062 42.511719 68.101562 42.355469 C 68.402344 41.597656 68.8125 40.882812 69.316406 40.242188 M 32.84375 51.371094 C 33.023438 51.589844 33.316406 51.785156 33.578125 51.671875 C 33.632812 51.648438 33.695312 51.664062 33.757812 51.667969 C 34.09375 51.707031 34.425781 51.503906 34.621094 51.226562 C 34.816406 50.945312 34.898438 50.605469 34.949219 50.269531 C 34.980469 50.0625 35 49.847656 34.953125 49.644531 C 34.875 49.304688 34.613281 49.023438 34.300781 48.871094 C 33.835938 48.640625 33.246094 48.691406 32.824219 48.992188 C 32.6875 49.089844 32.566406 49.210938 32.492188 49.359375 C 32.425781 49.484375 32.394531 49.625 32.378906 49.765625 C 32.3125 50.332031 32.484375 50.925781 32.84375 51.371094 M 36.59375 51.65625 C 36.980469 51.808594 37.445312 51.671875 37.746094 51.382812 C 38.046875 51.09375 38.199219 50.679688 38.242188 50.261719 C 38.28125 49.914062 38.242188 49.546875 38.050781 49.253906 C 37.804688 48.878906 37.339844 48.695312 36.890625 48.6875 C 36.601562 48.683594 36.304688 48.746094 36.078125 48.929688 C 35.839844 49.121094 35.710938 49.425781 35.683594 49.734375 C 35.652344 50.039062 35.71875 50.347656 35.8125 50.640625 C 35.953125 51.058594 36.1875 51.492188 36.59375 51.65625 M 52.15625 53.128906 C 52.421875 53.804688 52.566406 54.53125 52.582031 55.257812 C 52.585938 55.484375 52.578125 55.722656 52.671875 55.933594 C 53.003906 54.546875 53.339844 53.160156 53.671875 51.777344 C 53.707031 51.625 53.730469 51.4375 53.609375 51.34375 C 53.539062 51.289062 53.445312 51.285156 53.359375 51.285156 C 52.902344 51.285156 52.449219 51.285156 51.992188 51.285156 C 51.898438 51.285156 51.785156 51.292969 51.730469 51.371094 C 51.699219 51.414062 51.691406 51.46875 51.691406 51.523438 C 51.667969 52.085938 51.949219 52.605469 52.15625 53.128906 M 67 45.644531 C 67.191406 44.839844 67.386719 44.039062 67.675781 43.265625 C 67.066406 43.273438 66.460938 43.304688 65.859375 43.355469 C 65.746094 43.367188 65.589844 43.445312 65.644531 43.546875 C 65.730469 43.703125 65.652344 43.894531 65.589844 44.0625 C 65.527344 44.230469 65.496094 44.449219 65.636719 44.558594 C 66.089844 44.921875 66.542969 45.28125 67 45.644531 M 12.195312 43.960938 C 12.136719 44.414062 12.074219 44.867188 12.015625 45.324219 C 12.007812 45.371094 12.03125 45.445312 12.078125 45.425781 C 12.652344 45.15625 13.257812 44.957031 13.878906 44.824219 C 14.0625 44.785156 14.195312 44.605469 14.234375 44.417969 C 14.277344 44.234375 14.246094 44.039062 14.214844 43.851562 C 14.207031 43.796875 14.191406 43.738281 14.144531 43.710938 C 14.121094 43.699219 14.097656 43.699219 14.074219 43.699219 C 13.597656 43.679688 13.121094 43.660156 12.648438 43.644531 C 12.503906 43.640625 12.332031 43.648438 12.25 43.769531 C 12.214844 43.824219 12.203125 43.894531 12.195312 43.960938 M 42.464844 52.820312 C 42.460938 52.859375 42.457031 52.902344 42.46875 52.941406 C 42.507812 53.054688 42.65625 53.074219 42.777344 53.070312 C 43.820312 53.042969 44.863281 53.027344 45.902344 53.019531 C 45.9375 52.753906 45.925781 52.402344 45.671875 52.3125 C 45.609375 52.289062 45.539062 52.289062 45.472656 52.289062 C 44.488281 52.289062 43.503906 52.289062 42.519531 52.292969 C 42.5 52.46875 42.480469 52.644531 42.464844 52.820312 M 45.316406 56.945312 C 45.601562 57.023438 45.929688 56.984375 46.171875 56.808594 C 46.410156 56.636719 46.554688 56.320312 46.492188 56.027344 C 46.429688 55.734375 46.148438 55.492188 45.851562 55.511719 C 45.542969 55.53125 45.234375 55.546875 44.925781 55.566406 C 44.898438 55.917969 44.941406 56.277344 45.054688 56.613281 C 45.101562 56.753906 45.175781 56.90625 45.316406 56.945312 M 70.769531 52.15625 C 70.722656 51.949219 70.453125 51.90625 70.238281 51.90625 C 69.640625 51.90625 69.039062 51.90625 68.4375 51.910156 C 68.390625 51.910156 68.34375 51.910156 68.308594 51.9375 C 68.273438 51.964844 68.261719 52.015625 68.25 52.0625 C 68.222656 52.179688 68.199219 52.304688 68.226562 52.421875 C 68.257812 52.539062 68.355469 52.648438 68.476562 52.644531 C 68.859375 52.628906 69.242188 52.613281 69.625 52.59375 C 69.808594 52.589844 69.992188 52.582031 70.175781 52.574219 C 70.316406 52.566406 70.460938 52.558594 70.582031 52.496094 C 70.707031 52.429688 70.800781 52.289062 70.769531 52.15625 M 69.0625 47.164062 C 68.921875 46.941406 68.722656 46.722656 68.460938 46.703125 C 68.992188 47.554688 69.28125 48.558594 69.285156 49.5625 C 69.285156 49.695312 69.285156 49.839844 69.351562 49.953125 C 69.421875 50.066406 69.597656 50.125 69.691406 50.03125 C 69.757812 49.964844 69.753906 49.855469 69.746094 49.757812 C 69.671875 48.859375 69.546875 47.929688 69.0625 47.164062 M 53.054688 59.570312 C 53.101562 59.53125 53.097656 59.457031 53.089844 59.394531 C 53.011719 58.894531 52.9375 58.394531 52.863281 57.898438 C 52.855469 57.835938 52.835938 57.765625 52.777344 57.742188 C 52.691406 57.707031 52.617188 57.816406 52.585938 57.90625 C 52.390625 58.460938 52.191406 59.015625 51.996094 59.570312 C 52.308594 59.605469 52.625 59.617188 52.9375 59.605469 C 52.980469 59.601562 53.023438 59.597656 53.054688 59.570312 M 34.660156 57.785156 C 33.59375 57.769531 32.527344 57.75 31.460938 57.734375 C 30.886719 57.726562 30.3125 57.714844 29.738281 57.753906 C 29.421875 57.773438 29.105469 57.8125 28.816406 57.933594 C 28.527344 58.058594 28.269531 58.285156 28.167969 58.582031 C 28.707031 57.933594 29.660156 57.867188 30.503906 57.855469 C 31.890625 57.832031 33.273438 57.808594 34.660156 57.785156 M 38.863281 43.617188 C 38.402344 43.636719 37.945312 43.660156 37.484375 43.679688 C 37.273438 43.6875 37.0625 43.699219 36.847656 43.6875 C 36.40625 43.667969 35.972656 43.570312 35.542969 43.46875 C 35.488281 43.496094 35.484375 43.582031 35.527344 43.625 C 35.566406 43.671875 35.628906 43.6875 35.6875 43.699219 C 36.734375 43.929688 37.828125 43.953125 38.886719 43.769531 C 38.878906 43.71875 38.871094 43.667969 38.863281 43.617188 M 49.878906 43.785156 C 49.398438 43.722656 48.90625 43.707031 48.417969 43.742188 C 48.261719 43.753906 48.0625 43.816406 48.066406 43.972656 C 48.777344 43.988281 49.492188 44.003906 50.207031 44.015625 C 50.207031 43.871094 50.027344 43.804688 49.878906 43.785156 M 8.59375 57.726562 C 8.53125 57.726562 8.441406 57.769531 8.472656 57.820312 C 10.027344 57.84375 11.578125 57.863281 13.132812 57.882812 C 13.179688 57.832031 13.078125 57.769531 13.007812 57.769531 C 11.535156 57.753906 10.0625 57.742188 8.59375 57.726562 M 34.460938 43.652344 C 34.117188 43.628906 33.773438 43.652344 33.433594 43.714844 C 33.257812 43.746094 33.066406 43.800781 32.972656 43.953125 C 33.570312 43.933594 34.167969 43.925781 34.765625 43.929688 C 34.804688 43.855469 34.765625 43.761719 34.695312 43.714844 C 34.628906 43.667969 34.542969 43.65625 34.460938 43.652344 M 64.140625 58.605469 C 64.144531 58.652344 64.148438 58.707031 64.179688 58.746094 C 64.203125 58.773438 64.238281 58.789062 64.277344 58.789062 C 64.3125 58.265625 64.261719 57.734375 64.117188 57.230469 C 64.070312 57.6875 64.105469 58.148438 64.140625 58.605469 M 14.460938 58.480469 C 14.464844 58.527344 14.496094 58.570312 14.535156 58.59375 C 14.695312 58.449219 14.707031 58.167969 14.558594 58.007812 C 14.472656 58.148438 14.441406 58.316406 14.46875 58.480469 M 13.535156 57.796875 C 13.421875 57.773438 13.28125 57.757812 13.21875 57.855469 C 13.359375 57.894531 13.511719 57.898438 13.65625 57.859375 C 13.683594 57.808594 13.59375 57.78125 13.539062 57.789062 M 64.128906 54.828125 C 64.074219 54.863281 64.105469 54.964844 64.167969 54.964844 C 64.222656 54.925781 64.191406 54.824219 64.125 54.824219 Z M 64.128906 54.828125 " fill-opacity="1" fill-rule="nonzero"/></g></svg>